<svg width="24" height="24" viewBox="0 0 24 24" fill="none" xmlns="http://www.w3.org/2000/svg">
<path d="M17.0365 0H6.97548C2.6053 0 0 2.604 0 6.972V17.016C0 21.396 2.6053 24 6.97548 24H17.0245C21.3947 24 24 21.396 24 17.028V6.972C24.012 2.604 21.4067 0 17.0365 0ZM15.3557 12.636L11.1175 16.872C10.9375 17.052 10.7093 17.136 10.4812 17.136C10.2531 17.136 10.025 17.052 9.84491 16.872C9.49673 16.524 9.49673 15.948 9.84491 15.6L13.4467 12L9.84491 8.4C9.49673 8.052 9.49673 7.476 9.84491 7.128C10.1931 6.78 10.7694 6.78 11.1175 7.128L15.3557 11.364C15.7158 11.712 15.7158 12.288 15.3557 12.636Z" fill="#005288"/>
</svg>
