<svg width="24" height="24" viewBox="0 0 24 24" fill="none" xmlns="http://www.w3.org/2000/svg">
<path d="M17.0365 0H6.97548C2.6053 0 0 2.604 0 6.972V17.016C0 21.396 2.6053 24 6.97548 24H17.0245C21.3947 24 24 21.396 24 17.028V6.972C24.012 2.604 21.4067 0 17.0365 0ZM14.1551 15.6C14.5032 15.948 14.5032 16.524 14.1551 16.872C13.975 17.052 13.7469 17.136 13.5187 17.136C13.2906 17.136 13.0625 17.052 12.8824 16.872L8.64431 12.636C8.29613 12.288 8.29613 11.712 8.64431 11.364L12.8824 7.128C13.2306 6.78 13.8069 6.78 14.1551 7.128C14.5032 7.476 14.5032 8.052 14.1551 8.4L10.5533 12L14.1551 15.6Z" fill="#005288"/>
</svg>
