<svg width="70" height="75" viewBox="0 0 70 75" fill="none" xmlns="http://www.w3.org/2000/svg">
<path d="M62.57 74.0371H7.4425V26.6937C7.4425 23.2928 10.2036 20.5359 13.6097 20.5359H56.4027C59.8087 20.5359 62.5699 23.2928 62.5699 26.6937V74.0371H62.57Z" fill="#C8BEB9"/>
<path d="M65.708 74.0371H4.30457V68.634C4.30457 60.0876 11.2435 53.1592 19.8032 53.1592H50.2095C58.7692 53.1592 65.7081 60.0875 65.7081 68.634V74.0371H65.708Z" fill="#F5F0EB"/>
<path d="M50.2094 53.1593H46.3521C54.9116 53.1593 61.8507 60.0876 61.8507 68.6341V74.0371H65.708V68.634C65.708 60.0876 58.7691 53.1593 50.2094 53.1593Z" fill="#EBE1DC"/>
<path d="M54.8215 50.1657C55.584 50.0024 56.4112 50.2165 57.0035 50.8081C57.9323 51.7353 57.9323 53.3781 57.0035 54.3053C51.1145 60.1852 43.2847 63.982 34.9566 63.982C26.6851 63.982 18.8934 60.2229 13.0168 54.4117C12.0837 53.489 12.0765 51.8461 13.0006 50.9146C13.6505 50.2595 14.5878 50.0615 15.4114 50.3225" fill="#7D7878"/>
<path d="M15.8965 41.9667H8.19473C6.25807 41.9667 4.68811 40.3991 4.68811 38.4654V30.8834C4.68811 28.9497 6.25807 27.3822 8.19473 27.3822H15.8965V41.9667Z" fill="#7D7878"/>
<path d="M54.116 41.9667H61.8178C63.7544 41.9667 65.3244 40.3991 65.3244 38.4654V30.8834C65.3244 28.9497 63.7544 27.3822 61.8178 27.3822H54.116V41.9667Z" fill="#7D7878"/>
<path d="M52.5 52.4195C62.165 42.7693 62.165 27.1233 52.5 17.4732C42.835 7.823 27.165 7.823 17.5 17.4732C7.83502 27.1233 7.83502 42.7693 17.5 52.4195C27.165 62.0697 42.835 62.0697 52.5 52.4195Z" fill="#F5F0EB"/>
<path d="M35.0062 19.1684C26.8234 19.1828 19.7233 22.7485 16.158 27.9729C15.9894 28.22 15.8965 28.5108 15.8965 28.8098V42.4439C15.8965 42.7429 15.9893 43.0337 16.158 43.2808C19.7231 48.5053 26.8234 52.0709 35.0062 52.0854C43.1891 52.071 50.2892 48.5053 53.8545 43.2808C54.023 43.0337 54.116 42.7429 54.116 42.4439V28.8098C54.116 28.5108 54.0232 28.22 53.8545 27.9729C50.2892 22.7485 43.1891 19.1828 35.0062 19.1684Z" fill="#BED9FD"/>
<path d="M35.0063 10.231C34.3573 10.231 33.7141 10.2563 33.0776 10.3053C45.8466 11.2879 55.9014 21.9442 55.9014 34.9456C55.9014 47.947 45.8466 58.6033 33.0776 59.5859C33.7141 59.6349 34.3573 59.6601 35.0063 59.6601C48.6768 59.6601 59.7588 48.5951 59.7588 34.9456C59.7588 21.2961 48.6767 10.231 35.0063 10.231Z" fill="#EBE1DC"/>
<path d="M53.8544 27.973C50.2893 22.7485 43.1891 19.1828 35.0063 19.1684C34.3558 19.1696 33.7132 19.1956 33.0776 19.2407C40.4373 19.7627 46.7153 23.1638 49.9972 27.973C50.1659 28.2201 50.2587 28.5109 50.2587 28.8099V42.444C50.2587 42.743 50.1659 43.0338 49.9972 43.2809C46.7154 48.0901 40.4373 51.4912 33.0776 52.0132C33.7132 52.0583 34.3558 52.0844 35.0063 52.0855C43.1891 52.0711 50.2893 48.5055 53.8546 43.2809C54.0233 43.0338 54.1161 42.743 54.1161 42.444V28.8098C54.116 28.5108 54.0231 28.22 53.8544 27.973Z" fill="#9EC8FC"/>
<path d="M54.213 74.0371H15.7994V71.7606C15.7994 69.996 17.2322 68.5656 18.9994 68.5656H51.0129C52.7802 68.5656 54.2128 69.996 54.2128 71.7606V74.0371H54.213Z" fill="#80B6FC"/>
<path d="M51.013 68.5656H47.1556C48.923 68.5656 50.3557 69.996 50.3557 71.7606V74.0371H54.2131V71.7606C54.213 69.996 52.7804 68.5656 51.013 68.5656Z" fill="#5392F9"/>
<path d="M63.5344 58.9613V42.587C65.1501 41.9137 66.2888 40.32 66.2888 38.4656V30.8835C66.2888 29.0291 65.1501 27.4356 63.5344 26.7622V26.6938C63.5344 22.7675 60.3352 19.5732 56.4028 19.5732L55.6053 19.5896C50.9111 13.3279 43.4245 9.26817 35.0062 9.26817C30.13 9.26817 25.3842 10.637 21.2818 13.2267C20.8317 13.511 20.6974 14.1056 20.9821 14.5551C21.2667 15.0047 21.8626 15.1385 22.3125 14.8545C26.1061 12.4596 30.4955 11.1939 35.0062 11.1939C48.123 11.1939 58.7943 21.8489 58.7943 34.9456C58.7943 48.0423 48.123 58.6972 35.0062 58.6972C21.8894 58.6972 11.2182 48.0423 11.2182 34.9456C11.2182 28.06 14.2075 21.52 19.4199 17.0021C19.8221 16.6535 19.865 16.0454 19.5159 15.6438C19.1666 15.2422 18.5576 15.1992 18.1554 15.5479C16.7531 16.7634 15.4999 18.1145 14.408 19.5729H13.6097C9.67739 19.5729 6.47807 22.7672 6.47807 26.6935V26.762C4.86247 27.4353 3.72377 29.0289 3.72377 30.8833V38.4653C3.72377 40.3198 4.86247 41.9133 6.47807 42.5868V58.9798C6.26682 59.2702 6.06405 59.5674 5.87143 59.8722C4.21546 62.4921 3.34009 65.5218 3.34009 68.6339V74.0371C3.34009 74.5689 3.77173 75 4.30444 75H65.7079C66.2406 75 66.6722 74.5689 66.6722 74.0371V68.6342C66.6724 65.074 65.5414 61.7142 63.5344 58.9613ZM57.6857 50.1274C57.296 49.7382 56.826 49.4593 56.3187 49.3012C57.6407 47.351 58.6997 45.2099 59.4486 42.9297H61.6056V56.7617C60.6028 55.8055 59.4701 54.9664 58.2219 54.2725C58.5076 53.7605 58.6644 53.1672 58.6644 52.5568C58.6644 51.6339 58.3076 50.7484 57.6857 50.1274ZM64.36 30.8835V38.4656C64.36 39.8652 63.2196 41.0039 61.8178 41.0039H59.9981C60.4707 39.0605 60.723 37.032 60.723 34.9457C60.723 32.6645 60.422 30.4523 59.8601 28.3453H61.8177C63.2196 28.3452 64.36 29.4839 64.36 30.8835ZM61.5982 26.4194H59.2637C58.6545 24.6967 57.867 23.0575 56.9218 21.5247C59.458 21.7766 61.464 23.8546 61.5982 26.4194ZM35.0062 60.623C43.0531 60.623 50.2475 56.9126 54.9666 51.1164C54.9856 51.1135 55.0047 51.1112 55.0238 51.1071C55.4961 51.0057 55.981 51.1487 56.3218 51.4891C56.5849 51.7517 56.7359 52.1409 56.7359 52.5567C56.7359 52.9725 56.5849 53.3618 56.3217 53.6245C53.393 56.5486 50.0879 58.8522 46.498 60.4711C42.7488 62.1619 38.8659 63.0192 34.9568 63.0192C27.3053 63.0192 19.7547 59.7194 13.6956 53.7277C13.1434 53.1815 13.1388 52.1438 13.6859 51.5922C14.0614 51.2137 14.6112 51.0791 15.1198 51.2401C15.1307 51.2436 15.1419 51.2458 15.1528 51.2489C19.8734 56.9696 27.0203 60.623 35.0062 60.623ZM10.5638 42.9297C11.3233 45.2418 12.4024 47.4104 13.7503 49.3824C13.2182 49.5383 12.7232 49.8261 12.3155 50.2371C11.2632 51.298 11.0767 53.0044 11.7506 54.2963C10.5326 54.9794 9.40943 55.8113 8.4069 56.772V42.9297H10.5638ZM13.0841 21.5252C12.1349 23.0707 11.3528 24.7113 10.7504 26.4194H8.4141C8.54821 23.8569 10.5508 21.7801 13.0841 21.5252ZM5.65246 38.4656V30.8835C5.65246 29.4839 6.79284 28.3453 8.19474 28.3453H10.1552C9.587 30.478 9.28947 32.6945 9.28947 34.9457C9.28947 37.0322 9.54187 39.0606 10.0144 41.0039H8.19474C6.79296 41.0039 5.65246 39.8652 5.65246 38.4656ZM64.7437 73.0743H55.1775V71.7607C55.1775 69.468 53.3093 67.6027 51.013 67.6027H26.9143C26.3816 67.6027 25.9499 68.0338 25.9499 68.5656C25.9499 69.0974 26.3816 69.5285 26.9143 69.5285H51.013C52.2459 69.5285 53.2488 70.5299 53.2488 71.7607V73.0743H16.7638V71.7607C16.7638 70.5299 17.7667 69.5285 18.9994 69.5285H23.0569C23.5896 69.5285 24.0212 69.0974 24.0212 68.5656C24.0212 68.0338 23.5896 67.6027 23.0569 67.6027H18.9994C16.7032 67.6027 14.8351 69.468 14.8351 71.7607V73.0743H5.26891V68.6342C5.26891 63.1973 8.24399 58.301 13.0518 55.7815C15.9602 58.5118 19.1991 60.6879 22.6936 62.2547C26.6756 64.0399 30.8016 64.9451 34.9567 64.9451C39.1413 64.9451 43.2913 64.0304 47.2918 62.2263C50.7756 60.6553 54.0016 58.4774 56.8972 55.7483C61.7404 58.2579 64.7437 63.1806 64.7437 68.6342V73.0743Z" fill="black"/>
<path d="M15.3611 27.4308C15.0805 27.8419 14.9323 28.3188 14.9323 28.8099V42.444C14.9323 42.9351 15.0805 43.412 15.3611 43.8231C19.2343 49.4989 26.7612 53.0337 35.008 53.0483C43.2513 53.0337 50.7782 49.4987 54.6514 43.8231C54.9321 43.4119 55.0803 42.9351 55.0803 42.444V28.8098C55.0803 28.3188 54.9321 27.8419 54.6514 27.4307C50.7782 21.7549 43.2513 18.22 35.008 18.2055C35.0069 18.2055 35.0056 18.2055 35.0046 18.2055C26.7612 18.22 19.2343 21.7549 15.3611 27.4308ZM35.0062 20.1313C42.6214 20.145 49.538 23.3575 53.0575 28.515C53.1191 28.6053 53.1516 28.7072 53.1516 28.8098V42.4439C53.1516 42.5464 53.1191 42.6483 53.0575 42.7385C49.5378 47.8964 42.6203 51.1089 35.008 51.1224C27.3923 51.1089 20.4748 47.8965 16.9551 42.7385C16.8935 42.6484 16.8611 42.5464 16.8611 42.4439V28.8098C16.8611 28.7071 16.8936 28.6053 16.9551 28.515C20.4745 23.3575 27.3912 20.1451 35.0062 20.1313Z" fill="black"/>
<path d="M21.3036 30.1103C21.5403 30.1103 21.7773 30.0239 21.9634 29.8494C24.8167 27.1751 29.693 25.574 35.0049 25.5667C40.3195 25.574 45.1957 27.1751 48.049 29.8493C48.4373 30.2133 49.0477 30.194 49.4121 29.8063C49.7766 29.4186 49.7573 28.8093 49.369 28.4453C46.1679 25.445 40.7992 23.6491 35.0049 23.641C29.2134 23.6489 23.8446 25.445 20.6436 28.4453C20.2553 28.8093 20.236 29.4186 20.6005 29.8064C20.7901 30.0084 21.0465 30.1103 21.3036 30.1103Z" fill="black"/>
</svg>
