<svg xmlns="http://www.w3.org/2000/svg" viewBox="0 0 180 290"><defs><style>.cls-1{fill:#fff;}.cls-2{fill:#005288;}.cls-3{fill:#a7a9ac;}</style></defs><g id="Layer_2" data-name="Layer 2"><g id="Layer_1-2" data-name="Layer 1"><rect class="cls-1" width="180" height="290"/><g id="logo"><path class="cls-2" d="M44.64,144H30.28l-.51.41v12.76h3.95v-4.82l.36-.36H44.64c2.66,0,3.89-.71,3.89-2.56v-2.92c0-1.8-1.23-2.51-3.89-2.51m0,4.71c0,.87-.57,1-1.85,1H34.13l-.41-.36v-2.72l.36-.36h8.71c1.23,0,1.85.16,1.85,1Zm11.17-2.3,3.44,5-.21.46H51.46l-2,2.41H60.79l.82.46,1.74,2.41h4.56l-10-13.33m43.16,10.77V151l.41-.36h7.64v-2.25H97v8.76h17.84v-2.25H101.54M97,144h18v2.46H97Zm-20,2.36H91.5c-.21-1.85-1.39-2.36-4.26-2.36H76.83c-3.28,0-4.3.61-4.3,3.12v7c0,2.46,1,3.12,4.3,3.12H87.24c2.92,0,4.05-.56,4.15-2.46H77l-.41-.41v-7.69M20,149.09H9.52l-.31-.36v-2.25l.31-.26h14.2l.21-.46c-.46-1.23-1.75-1.84-4.05-1.84H10c-3.28,0-4.3.61-4.3,3.12v1.49c0,2.46,1,3.13,4.3,3.13H20.49l.31.3v2.36l-.26.36H5.37s-.36.21-.36.26c.26,1.74,1.43,2.2,4.25,2.2H20c3.28,0,4.36-.61,4.36-3.12v-1.8c0-2.46-1.08-3.13-4.36-3.13m106.33-5.17h-6l-.31.61,6.57,4.82c1.23-.72,2.61-1.44,4-2.15m1,5.74,5.79,4.2h6l.26-.56-8.62-6.31c-1.13.87-2.3,1.75-3.38,2.67"/><path class="cls-3" d="M125.49,157.14H120.1l-.46-.72c3.64-3.53,19.94-18.61,55.37-20.19,0,0-29.68,1-49.52,20.91"/></g></g></g></svg>