<svg width="180" height="23" viewBox="0 0 180 23" fill="none" xmlns="http://www.w3.org/2000/svg">
<g clip-path="url(#clip0)">
<path d="M42.0154 8.1872H26.8338L26.2916 8.62101V22.1219H30.4665V17.0251L30.846 16.6456H42.0153C44.8346 16.6456 46.136 15.8866 46.136 13.9347V10.8441C46.1361 8.94628 44.8348 8.1872 42.0154 8.1872ZM42.0154 13.1754C42.0154 14.0971 41.4189 14.2598 40.0635 14.2598H30.9003L30.4665 13.8803V11.0067L30.846 10.6271H40.0633C41.3647 10.6271 42.0152 10.7898 42.0152 11.7115L42.0154 13.1754ZM53.8353 10.7355L57.468 16.0491L57.2511 16.5371H49.2266L47.1662 19.0855H59.0945L59.962 19.5734L61.8055 22.1218H66.6311L56.0583 8.02454L53.8353 10.7355ZM101.711 19.4107V15.6154L102.145 15.2358H110.224V12.8501H97.4278V22.1218H116.296V19.7361H102.199L101.711 19.4107ZM97.4278 8.1872H116.459V10.7898H97.4278V8.1872ZM76.228 10.6813H91.5721C91.3553 8.72941 90.1082 8.1872 87.0719 8.1872H76.0654C72.5953 8.1872 71.5109 8.83788 71.5109 11.4946V18.8685C71.5109 21.4712 72.5953 22.1761 76.0654 22.1761H87.0719C90.1624 22.1761 91.3552 21.5796 91.4637 19.5734H76.228L75.7942 19.1396V11.0067L76.228 10.6813ZM15.9899 13.6092H4.8749L4.54957 13.2298V10.8441L4.8749 10.573H19.8937L20.1106 10.085C19.6226 8.78361 18.2671 8.13308 15.8272 8.13308H5.36284C1.89282 8.13308 0.808409 8.78369 0.808409 11.4404V13.0128C0.808409 15.6155 1.89282 16.3204 5.36284 16.3204H16.4779L16.8032 16.6456V19.1397L16.5321 19.5193H0.483071C0.483071 19.5193 0.103607 19.7361 0.103607 19.7904C0.374673 21.6339 1.62175 22.1218 4.60376 22.1218H15.99C19.46 22.1218 20.5987 21.4712 20.5987 18.8144V16.9166C20.5986 14.3141 19.46 13.6092 15.9899 13.6092ZM128.441 8.13301H122.152L121.827 8.78361L128.767 13.8804C130.068 13.1212 131.532 12.3622 133.05 11.6031L128.441 8.13301ZM134.08 17.6758L140.207 22.1218H146.497L146.768 21.5253L137.659 14.8563C136.466 15.7779 135.219 16.6998 134.08 17.6758Z" fill="#005288"/>
<path d="M127.52 22.1217H121.827L121.339 21.3626C125.189 17.6215 142.431 1.68082 179.896 0C179.896 0 148.503 1.08433 127.52 22.1217Z" fill="#A7A9AC"/>
</g>
<defs>
<clipPath id="clip0">
<rect width="180" height="22.176" fill="white"/>
</clipPath>
</defs>
</svg>
