<svg width="24" height="24" viewBox="0 0 24 24" fill="none" xmlns="http://www.w3.org/2000/svg">
<path d="M12 0.000183105C9.62663 0.000183105 7.30655 0.703971 5.33316 2.02255C3.35977 3.34112 1.8217 5.21527 0.913451 7.40798C0.00519943 9.6007 -0.232441 12.0135 0.230582 14.3413C0.693605 16.669 1.83649 18.8072 3.51472 20.4855C5.19295 22.1637 7.33115 23.3066 9.65892 23.7696C11.9867 24.2326 14.3995 23.995 16.5922 23.0867C18.7849 22.1785 20.6591 20.6404 21.9776 18.667C23.2962 16.6936 24 14.3736 24 12.0002C23.9966 8.81864 22.7312 5.76839 20.4815 3.5187C18.2318 1.26901 15.1815 0.00362419 12 0.000183105V0.000183105ZM13 11.8792C13.0001 12.0487 12.9571 12.2155 12.8751 12.3638C12.793 12.5121 12.6746 12.6372 12.531 12.7272L8.69101 15.1272C8.57938 15.1969 8.45512 15.244 8.3253 15.2657C8.19549 15.2874 8.06268 15.2833 7.93444 15.2537C7.8062 15.2241 7.68505 15.1695 7.57791 15.093C7.47077 15.0166 7.37974 14.9198 7.31001 14.8082C7.24027 14.6966 7.19321 14.5723 7.1715 14.4425C7.1498 14.3127 7.15387 14.1799 7.18349 14.0516C7.21311 13.9234 7.2677 13.8022 7.34414 13.6951C7.42059 13.5879 7.51738 13.4969 7.62901 13.4272L11 11.3252V7.00018C11 6.73497 11.1054 6.48061 11.2929 6.29308C11.4804 6.10554 11.7348 6.00018 12 6.00018C12.2652 6.00018 12.5196 6.10554 12.7071 6.29308C12.8946 6.48061 13 6.73497 13 7.00018V11.8792Z" fill="white"/>
</svg>
