<svg width="32" height="32" viewBox="0 0 32 32" fill="none" xmlns="http://www.w3.org/2000/svg">
<path d="M27.6364 0H4.36364C1.95367 0 0 1.95367 0 4.36364V27.6364C0 30.0463 1.95367 32 4.36364 32H27.6364C30.0463 32 32 30.0463 32 27.6364V4.36364C32 1.95367 30.0463 0 27.6364 0Z" fill="#0D64D2"/>
<path d="M15.4636 16C15.4636 16.9346 15.1866 17.8482 14.6676 18.6254C14.1485 19.4026 13.4108 20.0085 12.5475 20.3665C11.6842 20.7246 10.7342 20.8187 9.81746 20.6371C8.90071 20.4554 8.05838 20.0061 7.39689 19.3459C6.73541 18.6857 6.28447 17.8442 6.10104 16.9278C5.91761 16.0114 6.00993 15.0612 6.36633 14.1972C6.72274 13.3333 7.32723 12.5943 8.10343 12.0738C8.87963 11.5533 9.7927 11.2745 10.7273 11.2727C11.981 11.2727 13.1834 11.7708 14.07 12.6573C14.9565 13.5438 15.4546 14.7462 15.4546 16H15.4636Z" fill="white"/>
<path d="M26 16C26 16.9349 25.7228 17.8489 25.2033 18.6263C24.6839 19.4037 23.9456 20.0096 23.0818 20.3674C22.218 20.7252 21.2675 20.8188 20.3505 20.6364C19.4335 20.454 18.5912 20.0038 17.9301 19.3427C17.2689 18.6815 16.8187 17.8392 16.6363 16.9222C16.4539 16.0052 16.5475 15.0547 16.9053 14.1909C17.2631 13.3271 17.869 12.5888 18.6464 12.0694C19.4238 11.55 20.3378 11.2727 21.2727 11.2727C22.5265 11.2727 23.7289 11.7708 24.6154 12.6573C25.502 13.5438 26 14.7462 26 16Z" fill="#E50073"/>
</svg>
