<svg width="63" height="60" viewBox="0 0 63 60" fill="none" xmlns="http://www.w3.org/2000/svg">
<path d="M16.5842 13.1368C16.4516 12.8093 16.3784 12.4513 16.3784 12.0761C16.3784 10.5149 17.6441 9.24933 19.2052 9.24933C20.7663 9.24933 22.032 10.5149 22.032 12.0761C22.032 12.4664 21.9529 12.8383 21.8098 13.1765" fill="#DCD2CD"/>
<path d="M45.8403 4.79596C45.7076 4.46843 45.6345 4.11037 45.6345 3.73512C45.6345 2.17388 46.9001 0.908203 48.4613 0.908203C50.0225 0.908203 51.2881 2.17388 51.2881 3.73512C51.2881 4.12539 51.209 4.49726 51.066 4.83545" fill="#DCD2CD"/>
<path d="M39.1156 32.5194L35.8722 27.7202C35.4498 27.0952 34.8025 26.6575 34.0651 26.4985L23.2198 24.1591C22.7949 24.0674 22.416 23.8285 22.15 23.4847L20.7044 21.6156C20.1767 20.9332 19.2463 20.708 18.4649 21.0733L12.432 23.8938C11.9767 24.1067 11.628 24.4962 11.4666 24.9722L8.25537 34.446L26.9394 43.9607L39.1156 32.5194Z" fill="#EC9257"/>
<path d="M32.2384 29.3576L33.3974 31.0726H38.1379L35.8723 27.7202C35.4501 27.0952 34.8026 26.6575 34.0653 26.4984L23.22 24.1591C22.7951 24.0674 22.4162 23.8285 22.1502 23.4846L20.7046 21.6156C20.1769 20.9333 19.2465 20.708 18.465 21.0733L15.2598 22.5719C15.9313 22.441 16.637 22.6922 17.0708 23.2532L18.5163 25.1222C18.7823 25.4661 19.1612 25.7049 19.5861 25.7966L30.4314 28.136C31.1687 28.2949 31.8161 28.7327 32.2384 29.3576Z" fill="#E0825C"/>
<path d="M13.144 34.1812C8.5052 37.6174 5.49829 43.1312 5.49829 49.3472V50.6776H61.6005V36.325V30.4859L58.5698 19.0505C58.4182 18.4783 57.8484 18.1219 57.2674 18.236L51.7914 19.3116C51.4152 19.3855 51.1027 19.6462 50.9626 20.0029L49.0496 24.8699C48.5005 26.2668 47.1526 27.1853 45.6518 27.1853H41.5346C41.0323 27.1853 40.5354 27.289 40.0749 27.4898L33.9041 30.1815C33.4436 30.3824 32.9466 30.4861 32.4443 30.4861H24.3596C20.1588 30.4859 16.2788 31.8592 13.144 34.1812Z" fill="#F2AA62"/>
<path d="M58.5701 19.0505C58.4185 18.4783 57.8487 18.1219 57.2677 18.236L54.7891 18.723C54.8536 18.8214 54.9045 18.9309 54.9362 19.0506L57.9669 30.4861V36.3251V50.6777H61.6008V36.3251V30.4861L58.5701 19.0505Z" fill="#DB8B51"/>
<path d="M1.39966 54.1038V20.5011C1.39966 20.0082 1.79926 19.6086 2.29214 19.6086H5.26198C5.75486 19.6086 6.15446 20.0082 6.15446 20.5011V28.8044C6.15446 29.693 6.62917 30.5139 7.39943 30.957L13.0827 34.2268C13.8001 34.6397 14.2424 35.4043 14.2424 36.232V53.6635L1.39966 54.1038Z" fill="#EFC277"/>
<path d="M13.0827 34.2268L7.39943 30.957C6.62917 30.5139 6.15446 29.693 6.15446 28.8044V20.5011C6.15446 20.0082 5.75486 19.6086 5.26198 19.6086H2.29214C1.79926 19.6086 1.39966 20.0082 1.39966 20.5011V31.57C1.6424 31.8414 1.95249 32.0741 2.31854 32.2481L9.20365 35.518C10.0729 35.9308 10.6086 36.6955 10.6086 37.5231V53.7881L14.2425 53.6635V36.232C14.2425 35.4042 13.8001 34.6395 13.0827 34.2268Z" fill="#E6AE50"/>
<path d="M31.4082 36.7382C18.988 36.7382 8.01464 40.7606 1.39966 46.4919V59.0915H61.6009V46.6564C55.0066 40.7711 43.9452 36.7382 31.4082 36.7382Z" fill="#FBE4BA"/>
<path d="M31.4082 36.7382C22.8756 36.7382 15.0261 38.6367 8.80322 41.6834C14.3351 39.5718 20.828 38.3129 27.7744 38.3129C37.426 38.3129 46.2033 40.7031 52.7409 44.4885C55.989 46.3693 57.9671 49.8599 57.9671 53.6132V59.0914H61.601V46.6564C55.0066 40.7711 43.9452 36.7382 31.4082 36.7382Z" fill="#EFC277"/>
<path d="M62.4788 30.2531L59.448 18.8177C59.1747 17.7859 58.1392 17.1389 57.0924 17.3445L51.6166 18.4201C50.9327 18.5543 50.3723 19.0218 50.1171 19.6705L48.2041 24.5375C47.7888 25.5941 46.787 26.2767 45.6518 26.2767H41.5347C40.9035 26.2767 40.2903 26.4047 39.7117 26.657L37.0383 27.8231L36.625 27.2114C36.0689 26.3884 35.2279 25.8199 34.2568 25.6103L23.4115 23.271C23.1963 23.2246 23.0035 23.1031 22.8689 22.9288L21.4232 21.0598C20.6298 20.0337 19.255 19.7009 18.0801 20.2501L16.7133 20.8892C16.2588 21.1017 16.0626 21.6424 16.2752 22.097C16.4876 22.5514 17.028 22.7478 17.483 22.5351L18.8497 21.8962C19.2492 21.7096 19.7163 21.8226 19.986 22.1712L21.4315 24.0403C21.828 24.5529 22.395 24.9105 23.0285 25.047L33.8738 27.3863C34.3846 27.4966 34.827 27.7956 35.1196 28.2286L35.3448 28.5617C35.3448 28.5617 32.8241 29.5772 32.4446 29.5772H24.3598C20.2648 29.5772 16.3583 30.8101 13.0272 33.1466L10.2055 31.5231L12.3273 25.2637C12.4087 25.0235 12.5873 24.8241 12.8171 24.7165L14.6126 23.8771C15.067 23.6646 15.2633 23.1239 15.0507 22.6695C14.8382 22.215 14.2975 22.0186 13.8429 22.2312L12.0474 23.0706C11.3713 23.3868 10.8461 23.9735 10.6066 24.6804L8.60008 30.5994L7.85235 30.1693C7.36529 29.8891 7.06271 29.366 7.06271 28.804V20.5008C7.06271 19.5077 6.25478 18.6998 5.26176 18.6998H2.29192C1.2989 18.7001 0.490967 19.508 0.490967 20.5011V59.0915C0.490967 59.5933 0.897597 60 1.39944 60H13.1441C13.646 60 14.0526 59.5933 14.0526 59.0915C14.0526 58.5898 13.646 58.1831 13.1441 58.1831H2.3079V46.9109C9.21408 41.1034 20.052 37.6467 31.4079 37.6467C42.9649 37.6467 53.8725 41.1624 60.6922 47.0673V58.1829H16.778C16.2762 58.1829 15.8695 58.5897 15.8695 59.0914C15.8695 59.5931 16.2762 59.9999 16.778 59.9999H61.6006C62.1025 59.9999 62.5091 59.5931 62.5091 59.0914V30.4859C62.5091 30.4073 62.4989 30.3291 62.4788 30.2531ZM5.24577 20.517V28.8043C5.24577 30.0144 5.89733 31.1409 6.94618 31.7443L12.6294 35.0142C13.0639 35.2642 13.3337 35.7308 13.3337 36.232V38.8109C9.17665 40.2653 5.42214 42.2174 2.3079 44.5873V38.3614H4.5907C5.09254 38.3614 5.49917 37.9546 5.49917 37.4529C5.49917 36.9512 5.09254 36.5444 4.5907 36.5444H2.3079V20.517H5.24577ZM31.4079 35.8298C25.7412 35.8298 20.1907 36.6692 15.1506 38.2163V36.2322C15.1506 35.5368 14.9229 34.8713 14.5233 34.3264C17.446 32.4052 20.8254 31.3945 24.3596 31.3945H32.4444C33.0754 31.3945 33.6887 31.2666 34.2674 31.0143L40.4382 28.3225C40.786 28.1708 41.155 28.0937 41.5346 28.0937H45.6517C47.5389 28.0937 49.2045 26.9588 49.8951 25.2023L51.8079 20.3354C51.835 20.2667 51.8943 20.2173 51.9665 20.2031L57.4424 19.1275C57.5536 19.1058 57.6625 19.1743 57.6916 19.2833L60.6922 30.6043V44.7198C53.5153 39.1267 42.7452 35.8298 31.4079 35.8298Z" fill="black"/>
<path d="M22.7152 47.4496C23.217 47.4496 23.6236 47.0428 23.6236 46.5411C23.6236 46.0394 23.217 45.6326 22.7152 45.6326H18.6048C18.1029 45.6326 17.6963 46.0394 17.6963 46.5411C17.6963 47.0428 18.1029 47.4496 18.6048 47.4496H22.7152Z" fill="black"/>
<path d="M55.1233 32.0309H50.8057C50.3038 32.0309 49.8972 32.4376 49.8972 32.9394C49.8972 33.4411 50.3038 33.8478 50.8057 33.8478H55.1233C55.6252 33.8478 56.0318 33.4411 56.0318 32.9394C56.0318 32.4376 55.6252 32.0309 55.1233 32.0309Z" fill="black"/>
<path d="M37.377 53.6865C38.0323 53.6865 38.6489 53.4318 39.1131 52.9696L40.418 51.6696C40.5393 51.5488 40.7004 51.4822 40.8717 51.4822H45.9931C46.1957 51.4822 46.3888 51.5794 46.5096 51.742L47.2148 52.6924C47.6765 53.3149 48.415 53.6865 49.1903 53.6865H51.9697C52.4715 53.6865 52.8782 53.2798 52.8782 52.7781C52.8782 52.2763 52.4715 51.8696 51.9697 51.8696H49.1903C48.9876 51.8696 48.7945 51.7724 48.6738 51.6098L47.9687 50.6594C47.5069 50.0369 46.7683 49.6653 45.9931 49.6653H40.8717C40.2164 49.6653 39.5999 49.9199 39.1357 50.3822L37.8308 51.6821C37.7094 51.803 37.5483 51.8695 37.377 51.8695H34.6502C34.1483 51.8695 33.7417 52.2762 33.7417 52.7779C33.7417 53.2797 34.1483 53.6864 34.6502 53.6864H37.377V53.6865Z" fill="black"/>
<path d="M14.2278 14.276H24.1832C24.685 14.276 25.0916 13.8693 25.0916 13.3676C25.0916 12.8658 24.685 12.4591 24.1832 12.4591H22.9212C22.9341 12.3325 22.9407 12.2047 22.9407 12.076C22.9407 10.0163 21.265 8.3407 19.2054 8.3407C17.1457 8.3407 15.4701 10.0163 15.4701 12.076C15.4701 12.2047 15.477 12.3324 15.49 12.4591H14.2278C13.726 12.4591 13.3193 12.8658 13.3193 13.3676C13.3193 13.8693 13.7261 14.276 14.2278 14.276ZM17.2872 12.076C17.2872 11.0181 18.1478 10.1576 19.2055 10.1576C20.2633 10.1576 21.1239 11.0181 21.1239 12.076C21.1239 12.2061 21.1111 12.3341 21.0859 12.4591H17.3259C17.3006 12.334 17.2872 12.2061 17.2872 12.076Z" fill="black"/>
<path d="M43.4838 5.93533H53.4393C53.941 5.93533 54.3477 5.52858 54.3477 5.02686C54.3477 4.52514 53.941 4.11839 53.4393 4.11839H52.1773C52.1902 3.99181 52.1969 3.86402 52.1969 3.73526C52.1969 1.67558 50.5212 0 48.4615 0C46.4018 0 44.7262 1.67558 44.7262 3.73526C44.7262 3.86402 44.7331 3.99169 44.7461 4.11839H43.4839C42.9821 4.11839 42.5754 4.52514 42.5754 5.02686C42.5754 5.52858 42.9819 5.93533 43.4838 5.93533ZM46.543 3.73526C46.543 2.67744 47.4035 1.81694 48.4613 1.81694C49.5192 1.81694 50.3798 2.67744 50.3798 3.73526C50.3798 3.86535 50.367 3.99339 50.3418 4.11839H46.5818C46.5565 3.99327 46.543 3.86535 46.543 3.73526Z" fill="black"/>
</svg>
