<svg width="24" height="24" viewBox="0 0 24 24" fill="none" xmlns="http://www.w3.org/2000/svg">
<path d="M23.351 0.649216C23.0559 0.350901 22.6812 0.143741 22.2716 0.05243C21.8621 -0.038881 21.4349 -0.0104908 21.041 0.134216L20.825 0.211216C15.9881 1.78447 11.5845 4.46371 7.964 8.03622C7.05539 8.96884 6.22867 9.9779 5.493 11.0522C4.093 13.0522 3.827 15.2412 5.547 16.9622L5.586 17.0002L3.293 19.2932C3.10553 19.4807 3.00021 19.7351 3.00021 20.0002C3.00021 20.2654 3.10553 20.5197 3.293 20.7072C3.48053 20.8947 3.73484 21 4 21C4.26516 21 4.51947 20.8947 4.707 20.7072L7 18.4142L7.038 18.4532C8.759 20.1732 10.953 19.9052 12.948 18.5072C14.0223 17.7715 15.0314 16.9448 15.964 16.0362C19.5366 12.4154 22.2159 8.0115 23.789 3.17422L23.866 2.95822C24.0107 2.5645 24.0392 2.13745 23.9478 1.72803C23.8565 1.31861 23.6493 0.944107 23.351 0.649216V0.649216ZM11 14.0002C10.8022 14.0002 10.6089 13.9416 10.4444 13.8317C10.28 13.7218 10.1518 13.5656 10.0761 13.3829C10.0004 13.2002 9.98063 12.9991 10.0192 12.8051C10.0578 12.6111 10.153 12.433 10.2929 12.2931C10.4327 12.1533 10.6109 12.058 10.8049 12.0194C10.9989 11.9808 11.2 12.0006 11.3827 12.0763C11.5654 12.152 11.7216 12.2802 11.8315 12.4446C11.9414 12.6091 12 12.8024 12 13.0002C12 13.2654 11.8946 13.5198 11.7071 13.7073C11.5196 13.8949 11.2652 14.0002 11 14.0002ZM14 11.0002C13.8022 11.0002 13.6089 10.9416 13.4444 10.8317C13.28 10.7218 13.1518 10.5656 13.0761 10.3829C13.0004 10.2002 12.9806 9.99911 13.0192 9.80513C13.0578 9.61115 13.153 9.43296 13.2929 9.29311C13.4327 9.15326 13.6109 9.05802 13.8049 9.01943C13.9989 8.98085 14.2 9.00065 14.3827 9.07634C14.5654 9.15202 14.7216 9.2802 14.8315 9.44465C14.9414 9.6091 15 9.80244 15 10.0002C15 10.2654 14.8946 10.5198 14.7071 10.7073C14.5196 10.8949 14.2652 11.0002 14 11.0002ZM17 8.00022C16.8022 8.00022 16.6089 7.94157 16.4444 7.83169C16.28 7.7218 16.1518 7.56563 16.0761 7.3829C16.0004 7.20017 15.9806 6.99911 16.0192 6.80513C16.0578 6.61115 16.153 6.43296 16.2929 6.29311C16.4327 6.15326 16.6109 6.05802 16.8049 6.01943C16.9989 5.98085 17.2 6.00065 17.3827 6.07634C17.5654 6.15202 17.7216 6.2802 17.8315 6.44465C17.9414 6.6091 18 6.80244 18 7.00022C18 7.26543 17.8946 7.51979 17.7071 7.70732C17.5196 7.89486 17.2652 8.00022 17 8.00022ZM2.363 13.0382C2.05273 13.0383 1.74548 12.9774 1.45879 12.8587C1.17211 12.7401 0.911605 12.5661 0.692167 12.3468C0.472729 12.1274 0.298656 11.867 0.179892 11.5803C0.061128 11.2937 -2.78064e-08 10.9865 0 10.6762C0.00241739 10.0602 0.240336 9.46846 0.665 9.02222C2.37335 7.26607 4.67884 6.2154 7.125 6.07822C6.934 6.26022 6.739 6.43322 6.55 6.62222C5.55966 7.63588 4.65803 8.73256 3.855 9.90022C3.17969 10.8358 2.70945 11.9034 2.475 13.0332L2.363 13.0382ZM11 21.5252C12.1299 21.2912 13.1976 20.8209 14.133 20.1452C15.3026 19.3427 16.401 18.441 17.416 17.4502C17.606 17.2612 17.778 17.0662 17.961 16.8752C17.823 19.3214 16.772 21.6267 15.016 23.3352C14.5702 23.7599 13.9787 23.9978 13.363 24.0002C12.7363 24.0002 12.1353 23.7513 11.6921 23.3081C11.249 22.865 11 22.2639 11 21.6372V21.5252Z" fill="white"/>
</svg>
