<svg width="32" height="32" viewBox="0 0 32 32" fill="none" xmlns="http://www.w3.org/2000/svg">
<path d="M27.6364 0H4.36364C1.95367 0 0 1.95367 0 4.36364V27.6364C0 30.0463 1.95367 32 4.36364 32H27.6364C30.0463 32 32 30.0463 32 27.6364V4.36364C32 1.95367 30.0463 0 27.6364 0Z" fill="#50ABF1"/>
<path d="M25.9618 9.94727C25.4872 10.6564 24.9093 11.2906 24.2473 11.8291C24.1614 11.8974 24.0921 11.9842 24.0446 12.0831C23.997 12.1819 23.9725 12.2903 23.9727 12.4V12.4673C23.9652 13.8962 23.7029 15.3123 23.1982 16.6491C22.6783 18.0502 21.9062 19.3443 20.92 20.4673C19.6008 21.9712 17.9015 23.0927 16 23.7145C14.7471 24.1212 13.4372 24.3249 12.12 24.3182C10.0339 24.316 7.98542 23.7628 6.18183 22.7145C6.11725 22.6778 6.06646 22.621 6.03724 22.5527C6.00802 22.4844 6.00197 22.4084 6.02001 22.3364C6.0383 22.2651 6.07993 22.202 6.13826 22.1572C6.1966 22.1124 6.26827 22.0884 6.34183 22.0891H6.84001C8.42564 22.0888 9.97499 21.6146 11.2891 20.7273C10.5058 20.5992 9.77277 20.258 9.17048 19.741C8.56819 19.2241 8.11984 18.5512 7.87456 17.7964C7.86252 17.7591 7.86037 17.7194 7.86833 17.6811C7.87628 17.6428 7.89406 17.6073 7.91992 17.5779C7.94579 17.5486 7.97884 17.5265 8.01583 17.5138C8.05282 17.5011 8.09248 17.4982 8.13092 17.5054C8.37067 17.551 8.61415 17.5742 8.85819 17.5745H8.9491C8.18984 17.2257 7.54793 16.6643 7.10103 15.9583C6.65412 15.2523 6.42137 14.4319 6.43092 13.5964C6.43144 13.5572 6.44208 13.5188 6.46183 13.4849C6.48157 13.451 6.50974 13.4229 6.54359 13.4031C6.57744 13.3833 6.61583 13.3727 6.65503 13.3721C6.69423 13.3716 6.7329 13.3812 6.76728 13.4C7.07534 13.572 7.40576 13.7005 7.7491 13.7818C7.0692 13.1096 6.63159 12.2308 6.50491 11.2832C6.37823 10.3355 6.56963 9.37261 7.0491 8.54545C7.06749 8.51497 7.09284 8.48927 7.12308 8.47047C7.15331 8.45167 7.18756 8.4403 7.22304 8.43729C7.25851 8.43427 7.2942 8.4397 7.32717 8.45313C7.36014 8.46655 7.38946 8.4876 7.41274 8.51454C8.36499 9.69168 9.54402 10.6655 10.8799 11.3783C12.2157 12.091 13.6811 12.5281 15.1891 12.6636H15.2055C15.2278 12.6629 15.2498 12.6577 15.2701 12.6483C15.2904 12.639 15.3086 12.6256 15.3236 12.6091C15.3381 12.5925 15.349 12.5732 15.3556 12.5522C15.3621 12.5312 15.3643 12.5091 15.3618 12.4873C15.3055 11.9592 15.34 11.4255 15.4636 10.9091C15.572 10.457 15.7565 10.0266 16.0091 9.63636C16.5393 8.80367 17.3469 8.18538 18.2891 7.8909C18.7311 7.75234 19.1914 7.68124 19.6546 7.67999C20.7049 7.67896 21.7194 8.06175 22.5073 8.75636C22.6077 8.84557 22.7367 8.89588 22.8709 8.89818C22.9151 8.89744 22.9591 8.89134 23.0018 8.87999C23.7425 8.69261 24.4522 8.39928 25.1091 8.00909C25.1486 7.98624 25.1941 7.97584 25.2397 7.97924C25.2852 7.98263 25.3287 7.99967 25.3644 8.02812C25.4001 8.05658 25.4264 8.09514 25.4399 8.13876C25.4534 8.18239 25.4534 8.22908 25.44 8.27272C25.2196 8.96087 24.8294 9.58242 24.3055 10.08C24.7781 9.96711 25.2394 9.81132 25.6836 9.61454C25.7284 9.59458 25.7785 9.58977 25.8263 9.60084C25.8741 9.61191 25.9169 9.63825 25.9484 9.67587C25.9798 9.71349 25.9982 9.76034 26.0006 9.80931C26.003 9.85829 25.9894 9.90672 25.9618 9.94727Z" fill="white"/>
</svg>
