<svg width="32" height="32" viewBox="0 0 32 32" fill="none" xmlns="http://www.w3.org/2000/svg">
<rect width="32" height="32" rx="4" fill="#002F61"/>
<path d="M24.4833 7.51662C19.795 2.82817 12.2057 2.82742 7.51664 7.51662C2.82814 12.2051 2.82744 19.7942 7.51664 24.4834C12.205 29.1718 19.7942 29.1725 24.4833 24.4834C29.1718 19.7949 29.1725 12.2058 24.4833 7.51662ZM23.9819 22.7732C23.4214 22.2719 22.8218 21.8283 22.1898 21.4461C22.6075 20.0031 22.855 18.4152 22.9135 16.7645H26.4407C26.2812 18.9894 25.4264 21.0765 23.9819 22.7732ZM5.55924 16.7645H9.08647C9.14497 18.4152 9.39245 20.0031 9.81019 21.4461C9.17817 21.8283 8.57857 22.2719 8.01803 22.7732C6.57358 21.0765 5.71876 18.9894 5.55924 16.7645ZM8.01807 9.22682C8.57862 9.72806 9.17822 10.1717 9.81023 10.5539C9.3925 11.9969 9.14501 13.5848 9.08651 15.2355H5.55924C5.71876 13.0106 6.57358 10.9235 8.01807 9.22682ZM15.2355 10.712C13.9886 10.6228 12.7863 10.3157 11.6718 9.80904C12.32 8.13983 13.515 6.13779 15.2355 5.64165V10.712ZM15.2355 12.2439V15.2355H10.6162C10.6691 13.8392 10.867 12.4984 11.196 11.2716C12.4626 11.8253 13.8248 12.156 15.2355 12.2439ZM15.2355 16.7645V19.7561C13.8248 19.8441 12.4626 20.1747 11.196 20.7284C10.867 19.5016 10.6691 18.1608 10.6162 16.7645H15.2355ZM15.2355 21.2881V26.3583C13.5151 25.8622 12.3201 23.8604 11.6718 22.191C12.7863 21.6844 13.9886 21.3773 15.2355 21.2881ZM16.7645 21.2881C18.0114 21.3773 19.2137 21.6844 20.3282 22.191C19.68 23.8603 18.485 25.8622 16.7645 26.3583V21.2881ZM16.7645 19.7561V16.7645H21.3838C21.3309 18.1608 21.133 19.5016 20.804 20.7284C19.5374 20.1747 18.1752 19.8441 16.7645 19.7561ZM16.7645 15.2355V12.2439C18.1752 12.156 19.5374 11.8253 20.804 11.2716C21.133 12.4984 21.3309 13.8392 21.3838 15.2355H16.7645ZM16.7645 10.712V5.6417C18.485 6.13784 19.68 8.13988 20.3282 9.80909C19.2137 10.3157 18.0114 10.6228 16.7645 10.712ZM20.1986 6.405C21.1772 6.83355 22.0903 7.41466 22.9087 8.13566C22.5192 8.47916 22.1081 8.79063 21.6788 9.06916C21.2976 8.12531 20.8106 7.20806 20.1986 6.405ZM10.3211 9.06916C9.89187 8.79063 9.48083 8.47916 9.0912 8.13566C9.90967 7.41466 10.8227 6.83355 11.8014 6.405C11.1893 7.20815 10.7023 8.1254 10.3211 9.06916ZM10.3212 22.9309C10.7023 23.8747 11.1894 24.792 11.8014 25.595C10.8228 25.1665 9.90972 24.5854 9.09124 23.8644C9.48083 23.5209 9.89192 23.2094 10.3212 22.9309ZM21.6788 22.9309C22.1081 23.2094 22.5192 23.5209 22.9087 23.8643C22.0903 24.5853 21.1772 25.1664 20.1986 25.595C20.8106 24.792 21.2976 23.8747 21.6788 22.9309ZM22.9135 15.2355C22.855 13.5849 22.6075 11.9969 22.1898 10.554C22.8218 10.1717 23.4214 9.72811 23.982 9.22686C25.4264 10.9235 26.2812 13.0106 26.4408 15.2355H22.9135Z" fill="white"/>
</svg>
