<svg width="24" height="19" viewBox="0 0 24 19" fill="none" xmlns="http://www.w3.org/2000/svg">
<path d="M23.3914 0.0689087H18.3605C18.0258 0.0689087 17.7519 0.358538 17.7519 0.71253V1.52084C17.7519 1.87483 18.0258 2.16446 18.3605 2.16446H19.6357C19.6391 2.16776 15.7802 12.8539 15.7802 12.8539L13.7013 7.90975C13.7013 7.90975 16.4311 2.17999 16.4409 2.16438H17.0164C17.3512 2.16438 17.6251 1.87475 17.6251 1.52076V0.71253C17.6251 0.358538 17.3512 0.0689087 17.0164 0.0689087H13.2789C12.9442 0.0689087 12.6703 0.358538 12.6703 0.71253V1.52084C12.6703 1.87483 12.9442 2.16446 13.2789 2.16446H13.8C13.7772 2.2433 12.5405 5.14475 12.5405 5.14475C12.5405 5.14475 11.3664 2.36318 11.2914 2.16446H11.4221C11.7569 2.16446 12.0307 1.87483 12.0307 1.52084V0.71253C12.0307 0.358538 11.7569 0.0689087 11.4221 0.0689087H7.45641C7.12166 0.0689087 6.84777 0.358538 6.84777 0.71253V1.52084C6.84777 1.87483 7.12166 2.16446 7.45641 2.16446H7.98745C8.09091 2.32762 10.7119 8.40163 10.9122 8.915L9.20404 12.873C8.22345 10.4551 5.87251 4.62623 5.07588 2.36865C5.04682 2.28828 5.02567 2.2215 5.00923 2.16446H6.11148C6.44623 2.16446 6.72011 1.87483 6.72011 1.52084V0.71253C6.72011 0.358538 6.44623 0.0689087 6.11148 0.0689087H0.608637C0.273887 0.0689087 0 0.358538 0 0.71253V1.52084C0 1.87483 0.273887 2.16446 0.608637 2.16446H1.56686C1.61958 2.22729 3.75537 7.72205 4.79203 10.2921C5.74987 12.6664 6.7402 15.1215 7.38124 16.8791C7.38246 16.8826 7.38375 16.8859 7.38505 16.8893C7.49734 17.181 7.83886 18.0689 8.58543 18.0689C9.22602 18.0689 9.62704 17.4075 9.873 16.9101C9.87521 16.9056 9.87757 16.9008 9.8797 16.8961C10.3954 15.7837 11.3271 13.5894 12.0583 11.8468C13.019 14.295 13.6917 15.9786 14.0606 16.859C14.1825 17.1522 14.5536 18.0447 15.2951 18.0448H15.2953C16.0161 18.0448 16.4025 17.1886 16.5294 16.9073C16.534 16.897 16.5383 16.8867 16.5424 16.8761C17.8423 13.518 21.6586 3.36642 21.6971 3.26425C21.7 3.25644 21.7028 3.24864 21.7054 3.24068C21.8379 2.84018 22.0141 2.54009 22.2416 2.32545C22.3094 2.26213 22.3946 2.20887 22.4947 2.16438H23.3914C23.7261 2.16438 24 1.87475 24 1.52076V0.71253C24 0.358538 23.7261 0.0689087 23.3914 0.0689087Z" fill="#2E3440"/>
</svg>
