<svg id="Capa_1" enable-background="new 0 0 512 512" height="512" viewBox="0 0 512 512" width="512" xmlns="http://www.w3.org/2000/svg"><g><g><g><circle cx="256" cy="256" fill="#172a7d" r="245"/></g></g><g><g><g><path d="m148.079 199.626c16.956 0 33.202-6.132 44.575-16.823 11.012-10.352 26.769-16.289 43.229-16.289s32.216 5.937 43.229 16.289c.211.225 25.494 26.551 55.002 26.55 15.22 0 28.951-6.885 40.813-20.464l15.261-14.34c.64-1.496.983-2.295.983-2.295-28.044-45.171-78.091-75.254-135.171-75.254-63.599 0-118.467 37.345-143.894 91.299l.81 1.687c10.146 6.223 22.563 9.64 35.163 9.64z" fill="#4f66d0"/></g></g><g fill="#314dc9"><path d="m256 283.861c58.116 0 113.847-3.166 157.874-8.936.736-6.206 1.126-12.52 1.126-18.925 0-30.734-8.729-59.424-23.829-83.745l-16.997 15.977c-42.476 48.623-94.377-6.157-94.377-6.157-23.489-22.08-64.339-22.08-87.828 0-21.016 19.756-55.922 21.821-79.865 6.223-9.682 20.542-15.104 43.487-15.104 67.702 0 6.405.39 12.719 1.126 18.926 44.027 5.77 99.758 8.935 157.874 8.935z"/><path d="m256 301.861c-56.807 0-110.735-2.945-154.541-8.363 16.857 69.715 79.646 121.502 154.541 121.502s137.684-51.787 154.541-121.502c-43.806 5.419-97.734 8.363-154.541 8.363z"/></g></g><g><path d="m157.953 197.919c20.267-51.615 66.74-90.063 123.047-98.957-8.145-1.286-16.493-1.962-25-1.962-63.599 0-118.467 37.345-143.896 91.298 13.317 8.676 30.025 11.879 45.849 9.621z" fill="#314dc9"/></g><g><path d="m147.281 246.67c.993-17.117 4.687-33.508 10.673-48.751-15.824 2.258-32.532-.945-45.849-9.621-9.17 19.456-14.511 41.07-15.051 63.875 16.83 2.864 34.555 1.028 50.227-5.503z" fill="#2740b0"/></g><g fill="#4f66d0"><path d="m256 283.861c58.116 0 113.847-3.166 157.874-8.936.736-6.206 1.126-12.52 1.126-18.925 0-5.846-.325-11.616-.94-17.298l-1.045.982c-56.437 64.604-125.397-8.181-125.397-8.181-31.209-29.338-85.486-29.338-116.695 0h-.001c-19.406 18.243-47.725 25.12-73.875 20.669-.029 1.273-.047 2.548-.047 3.828 0 6.405.39 12.719 1.126 18.926 44.027 5.77 99.758 8.935 157.874 8.935z"/><path d="m256 301.861c-56.807 0-110.735-2.945-154.541-8.363 16.857 69.715 79.646 121.502 154.541 121.502s137.684-51.787 154.541-121.502c-43.806 5.419-97.734 8.363-154.541 8.363z"/></g><g fill="#314dc9"><path d="m127.487 349.623c-.086-.118-.169-.238-.255-.356-.001.001-.002.001-.004.002.085.117.173.236.259.354z"/><path d="m148.658 279.031c-1.092-7.519-1.658-15.209-1.658-23.031 0-3.133.101-6.242.28-9.33-15.674 6.531-33.4 8.367-50.231 5.502-.031 1.273-.049 2.548-.049 3.828 0 6.053.346 12.025 1.005 17.901 15.554 2.045 32.573 3.763 50.653 5.13z"/><path d="m101.71 294.536c4.985 20.011 13.763 38.522 25.522 54.73 6.816-2.975 13.222-7.034 18.887-12.229 5.121-4.697 10.848-8.466 16.935-11.347-4.089-8.371-7.452-17.16-10.035-26.276-18.199-1.286-35.416-2.919-51.309-4.878z"/></g><path d="m355.08 353.947c-52.016 57.924-108.04-12.427-108.04-12.427-25.533-28.488-72.474-30.574-100.921-4.484-5.666 5.196-12.072 9.256-18.89 12.231 28.895 39.827 75.804 65.733 128.771 65.733 70.156 0 129.695-45.439 150.804-108.491z" fill="#314dc9"/><path d="m281 413.038c-51.999-8.213-95.614-41.631-117.946-87.348-6.087 2.881-11.814 6.65-16.935 11.347-5.666 5.196-12.072 9.256-18.89 12.231.085.118.173.237.259.355 28.915 39.624 75.702 65.377 128.512 65.377 8.507 0 16.855-.676 25-1.962z" fill="#2740b0"/><path d="m137.306 205.911c-1.167-.009-2.129-.921-2.199-2.087-3.069-50.382-5.142-52.489-55.468-56.374-1.164-.09-2.06-1.066-2.051-2.233s.921-2.129 2.087-2.199c50.382-3.069 52.489-5.142 56.374-55.468.09-1.164 1.066-2.06 2.233-2.051s2.129.921 2.199 2.087c3.069 50.382 5.142 52.489 55.468 56.374 1.164.09 2.06 1.066 2.051 2.233s-.921 2.129-2.087 2.199c-50.382 3.069-52.489 5.142-56.374 55.468-.09 1.165-1.066 2.061-2.233 2.051z" fill="#fff"/><g><path d="m114.395 138.899c-7.85 2.29-18.906 3.156-34.719 4.119-1.166.071-2.077 1.032-2.087 2.199-.009 1.167.886 2.143 2.051 2.233 50.326 3.885 52.399 5.992 55.468 56.374.071 1.166 1.032 2.077 2.199 2.087 1.167.009 2.143-.886 2.233-2.051 1.21-15.68 2.249-26.675 4.628-34.476-2.755-21.241-8.705-27.362-29.773-30.485z" fill="#f3f0f3"/></g><path d="m392.836 100.476c-8.054 2.885-11.475 6.306-14.36 14.36-.639 1.784-3.138 1.784-3.777 0-2.885-8.054-6.306-11.475-14.36-14.36-1.784-.639-1.784-3.138 0-3.777 8.054-2.885 11.475-6.306 14.36-14.36.639-1.784 3.138-1.784 3.777 0 2.885 8.054 6.306 11.475 14.36 14.36 1.784.638 1.784 3.137 0 3.777z" fill="#fff"/><path d="m369.067 91.819c-2.168 2.03-4.929 3.518-8.729 4.879-1.784.639-1.784 3.138 0 3.777 8.054 2.885 11.475 6.306 14.36 14.36.639 1.784 3.138 1.784 3.777 0 1.361-3.8 2.849-6.561 4.879-8.729-3.178-7.112-7.174-11.108-14.287-14.287z" fill="#f3f0f3"/><g><path d="m103.662 363.302c-8.054 2.885-11.475 6.306-14.36 14.36-.639 1.784-3.138 1.784-3.777 0-2.885-8.054-6.306-11.475-14.36-14.36-1.784-.639-1.784-3.138 0-3.777 8.054-2.885 11.475-6.306 14.36-14.36.639-1.784 3.138-1.784 3.777 0 2.885 8.054 6.306 11.475 14.36 14.36 1.784.639 1.784 3.138 0 3.777z" fill="#fff"/><path d="m79.196 355.266c-2.058 1.72-4.628 3.04-8.032 4.259-1.784.639-1.784 3.138 0 3.777 8.054 2.885 11.475 6.306 14.36 14.36.639 1.784 3.138 1.784 3.777 0 1.245-3.477 2.593-6.088 4.368-8.167-3.253-6.976-7.365-11.013-14.473-14.229z" fill="#f3f0f3"/></g><g><path d="m420.836 389.302c-8.054 2.885-11.475 6.306-14.36 14.36-.639 1.784-3.138 1.784-3.777 0-2.885-8.054-6.306-11.475-14.36-14.36-1.784-.639-1.784-3.138 0-3.777 8.054-2.885 11.475-6.306 14.36-14.36.639-1.784 3.138-1.784 3.777 0 2.885 8.054 6.306 11.475 14.36 14.36 1.784.639 1.784 3.138 0 3.777z" fill="#fff"/><path d="m396.37 381.266c-2.058 1.72-4.628 3.04-8.032 4.259-1.784.639-1.784 3.138 0 3.777 8.054 2.885 11.475 6.306 14.36 14.36.639 1.784 3.138 1.784 3.777 0 1.245-3.477 2.593-6.088 4.368-8.167-3.253-6.976-7.366-11.013-14.473-14.229z" fill="#f3f0f3"/></g><g fill="#fed402"><path d="m443.607 193.949-6.157 6.157c-.524.524-1.375.524-1.899 0l-6.157-6.157c-.524-.524-.524-1.375 0-1.899l6.157-6.157c.524-.524 1.375-.524 1.899 0l6.157 6.157c.524.525.524 1.375 0 1.899z"/><path d="m272.607 52.449-6.157 6.157c-.524.524-1.375.524-1.899 0l-6.157-6.157c-.524-.524-.524-1.375 0-1.899l6.157-6.157c.524-.524 1.375-.524 1.899 0l6.157 6.157c.524.525.524 1.375 0 1.899z"/><path d="m217.607 458.449-6.157 6.157c-.524.524-1.375.524-1.899 0l-6.157-6.157c-.524-.524-.524-1.375 0-1.899l6.157-6.157c.524-.524 1.375-.524 1.899 0l6.157 6.157c.524.525.524 1.375 0 1.899z"/><path d="m140.607 415.449-6.157 6.157c-.524.524-1.375.524-1.899 0l-6.157-6.157c-.524-.524-.524-1.375 0-1.899l6.157-6.157c.524-.524 1.375-.524 1.899 0l6.157 6.157c.524.525.524 1.375 0 1.899z"/><path d="m441.607 337.449-6.157 6.157c-.524.524-1.375.524-1.899 0l-6.157-6.157c-.524-.524-.524-1.375 0-1.899l6.157-6.157c.524-.524 1.375-.524 1.899 0l6.157 6.157c.524.525.524 1.375 0 1.899z"/></g><g><path d="m256 302.861c-66.204 0-128.522-3.994-175.475-11.247-56.443-8.718-80.525-19.71-80.525-36.753 0-15.798 20.394-26.178 68.193-34.706 5.438-.972 10.631 2.651 11.601 8.088s-2.651 10.631-8.088 11.601c-33.994 6.065-46.151 12.191-50.208 15.016 4.784 3.332 20.823 11.258 70.543 18.234 44.888 6.298 103.116 9.767 163.959 9.767s119.071-3.469 163.959-9.767c49.721-6.977 65.759-14.903 70.543-18.234-4.057-2.824-16.214-8.951-50.208-15.016-5.437-.97-9.058-6.164-8.088-11.601.97-5.438 6.164-9.06 11.601-8.088 47.799 8.529 68.193 18.908 68.193 34.706 0 17.042-24.082 28.034-80.525 36.753-46.953 7.253-109.271 11.247-175.475 11.247z" fill="#cbc4cc"/></g></g></svg>